<mxfile host="app.diagrams.net" agent="Mozilla/5.0 (Windows NT 10.0; Win64; x64) AppleWebKit/537.36 (KHTML, like Gecko) Chrome/133.0.0.0 Safari/537.36" version="26.0.15">
  <diagram name="Page-1" id="10a91c8b-09ff-31b1-d368-03940ed4cc9e">
    <mxGraphModel dx="2600" dy="807" grid="1" gridSize="10" guides="1" tooltips="1" connect="1" arrows="1" fold="1" page="1" pageScale="1" pageWidth="1100" pageHeight="850" background="none" math="0" shadow="0">
      <root>
        <mxCell id="0" />
        <mxCell id="1" parent="0" />
        <mxCell id="HmZeAoz7OXI5nGcgTGWF-1" style="rounded=0;sketch=1;hachureGap=4;jiggle=2;curveFitting=1;orthogonalLoop=1;jettySize=auto;html=1;exitX=1;exitY=1;exitDx=0;exitDy=0;fontFamily=Architects Daughter;fontSource=https%3A%2F%2Ffonts.googleapis.com%2Fcss%3Ffamily%3DArchitects%2BDaughter;fillColor=#d5e8d4;gradientColor=#97d077;strokeColor=#00FFFF;" edge="1" parent="1" source="gGJAbAsKnIqdadsWA6wg-8">
          <mxGeometry relative="1" as="geometry">
            <mxPoint x="856.5" y="190" as="sourcePoint" />
            <mxPoint x="860" y="520" as="targetPoint" />
          </mxGeometry>
        </mxCell>
        <mxCell id="HmZeAoz7OXI5nGcgTGWF-2" value="Range" style="edgeLabel;html=1;align=center;verticalAlign=middle;resizable=0;points=[];sketch=1;hachureGap=4;jiggle=2;curveFitting=1;fontFamily=Architects Daughter;fontSource=https%3A%2F%2Ffonts.googleapis.com%2Fcss%3Ffamily%3DArchitects%2BDaughter;" vertex="1" connectable="0" parent="HmZeAoz7OXI5nGcgTGWF-1">
          <mxGeometry x="0.2577" relative="1" as="geometry">
            <mxPoint x="29" y="32" as="offset" />
          </mxGeometry>
        </mxCell>
        <mxCell id="09XxZc1g37a5Un7T-y1D-8" style="rounded=0;sketch=1;hachureGap=4;jiggle=2;curveFitting=1;orthogonalLoop=1;jettySize=auto;html=1;exitX=1;exitY=1;exitDx=0;exitDy=0;fontFamily=Architects Daughter;fontSource=https%3A%2F%2Ffonts.googleapis.com%2Fcss%3Ffamily%3DArchitects%2BDaughter;fillColor=#d5e8d4;gradientColor=#97d077;strokeColor=#00FFFF;" parent="1" source="gGJAbAsKnIqdadsWA6wg-8" edge="1">
          <mxGeometry relative="1" as="geometry">
            <mxPoint x="713" y="270" as="sourcePoint" />
            <mxPoint x="680" y="520" as="targetPoint" />
          </mxGeometry>
        </mxCell>
        <mxCell id="09XxZc1g37a5Un7T-y1D-10" value="Range" style="edgeLabel;html=1;align=center;verticalAlign=middle;resizable=0;points=[];sketch=1;hachureGap=4;jiggle=2;curveFitting=1;fontFamily=Architects Daughter;fontSource=https%3A%2F%2Ffonts.googleapis.com%2Fcss%3Ffamily%3DArchitects%2BDaughter;" parent="09XxZc1g37a5Un7T-y1D-8" vertex="1" connectable="0">
          <mxGeometry x="0.2577" relative="1" as="geometry">
            <mxPoint x="12" y="7" as="offset" />
          </mxGeometry>
        </mxCell>
        <mxCell id="DmyO-TmC5lkpLwxQltIJ-7" style="rounded=0;sketch=1;hachureGap=4;jiggle=2;curveFitting=1;orthogonalLoop=1;jettySize=auto;html=1;exitX=1;exitY=1;exitDx=0;exitDy=0;entryX=0.5;entryY=0;entryDx=0;entryDy=0;fontFamily=Architects Daughter;fontSource=https%3A%2F%2Ffonts.googleapis.com%2Fcss%3Ffamily%3DArchitects%2BDaughter;fillColor=#d5e8d4;gradientColor=#97d077;strokeColor=#FF00FF;" parent="1" source="gGJAbAsKnIqdadsWA6wg-8" target="DmyO-TmC5lkpLwxQltIJ-2" edge="1">
          <mxGeometry relative="1" as="geometry" />
        </mxCell>
        <mxCell id="UjzeRyzxe-JirhQYJkpm-43" value="Heard FootSound?" style="edgeLabel;html=1;align=center;verticalAlign=middle;resizable=0;points=[];sketch=1;hachureGap=4;jiggle=2;curveFitting=1;fontFamily=Architects Daughter;fontSource=https%3A%2F%2Ffonts.googleapis.com%2Fcss%3Ffamily%3DArchitects%2BDaughter;" parent="DmyO-TmC5lkpLwxQltIJ-7" vertex="1" connectable="0">
          <mxGeometry x="-0.3496" y="-3" relative="1" as="geometry">
            <mxPoint as="offset" />
          </mxGeometry>
        </mxCell>
        <mxCell id="gGJAbAsKnIqdadsWA6wg-10" value="CanSeePlayer" style="rhombus;whiteSpace=wrap;html=1;sketch=1;hachureGap=4;jiggle=2;curveFitting=1;fontFamily=Architects Daughter;fontSource=https%3A%2F%2Ffonts.googleapis.com%2Fcss%3Ffamily%3DArchitects%2BDaughter;fillColor=#f8cecc;gradientColor=#ea6b66;strokeColor=#b85450;" parent="1" vertex="1">
          <mxGeometry x="340" y="330" width="190" height="80" as="geometry" />
        </mxCell>
        <mxCell id="09XxZc1g37a5Un7T-y1D-5" style="rounded=0;sketch=1;hachureGap=4;jiggle=2;curveFitting=1;orthogonalLoop=1;jettySize=auto;html=1;exitX=0;exitY=1;exitDx=0;exitDy=0;fontFamily=Architects Daughter;fontSource=https%3A%2F%2Ffonts.googleapis.com%2Fcss%3Ffamily%3DArchitects%2BDaughter;anchorPointDirection=1;startFill=1;bendable=1;simplification=0;arcSize=20;fillOpacity=100;strokeOpacity=100;perimeterSpacing=0;orthogonal=0;jumpStyle=none;fillColor=#d5e8d4;gradientColor=#97d077;strokeColor=#00FFFF;" parent="1" source="gGJAbAsKnIqdadsWA6wg-8" edge="1">
          <mxGeometry relative="1" as="geometry">
            <mxPoint x="618" y="270" as="sourcePoint" />
            <mxPoint x="483" y="356" as="targetPoint" />
          </mxGeometry>
        </mxCell>
        <mxCell id="09XxZc1g37a5Un7T-y1D-7" value="Range" style="edgeLabel;html=1;align=center;verticalAlign=middle;resizable=0;points=[];sketch=1;hachureGap=4;jiggle=2;curveFitting=1;fontFamily=Architects Daughter;fontSource=https%3A%2F%2Ffonts.googleapis.com%2Fcss%3Ffamily%3DArchitects%2BDaughter;" parent="09XxZc1g37a5Un7T-y1D-5" vertex="1" connectable="0">
          <mxGeometry x="0.3" y="1" relative="1" as="geometry">
            <mxPoint as="offset" />
          </mxGeometry>
        </mxCell>
        <mxCell id="gGJAbAsKnIqdadsWA6wg-9" style="edgeStyle=orthogonalEdgeStyle;rounded=0;sketch=1;hachureGap=4;jiggle=2;curveFitting=1;orthogonalLoop=1;jettySize=auto;html=1;exitX=0.5;exitY=1;exitDx=0;exitDy=0;entryX=0.5;entryY=0;entryDx=0;entryDy=0;fontFamily=Architects Daughter;fontSource=https%3A%2F%2Ffonts.googleapis.com%2Fcss%3Ffamily%3DArchitects%2BDaughter;" parent="1" source="gGJAbAsKnIqdadsWA6wg-2" target="gGJAbAsKnIqdadsWA6wg-8" edge="1">
          <mxGeometry relative="1" as="geometry" />
        </mxCell>
        <mxCell id="gGJAbAsKnIqdadsWA6wg-2" value="&lt;div&gt;&lt;font style=&quot;color: rgb(255, 255, 255); font-size: 15px;&quot;&gt;&lt;b&gt;Zombie_&lt;span style=&quot;background-color: initial;&quot;&gt;BT&lt;/span&gt;&lt;/b&gt;&lt;/font&gt;&lt;/div&gt;" style="whiteSpace=wrap;html=1;rounded=1;shadow=1;labelBackgroundColor=none;strokeWidth=1;fontFamily=Architects Daughter;fontSize=12;align=center;sketch=1;curveFitting=1;jiggle=2;fontSource=https%3A%2F%2Ffonts.googleapis.com%2Fcss%3Ffamily%3DArchitects%2BDaughter;arcSize=50;fillColor=#d5e8d4;strokeColor=#82b366;gradientColor=#97d077;" parent="1" vertex="1">
          <mxGeometry x="587.5" y="30" width="135" height="70" as="geometry" />
        </mxCell>
        <mxCell id="gGJAbAsKnIqdadsWA6wg-14" style="rounded=0;sketch=1;hachureGap=4;jiggle=2;curveFitting=1;orthogonalLoop=1;jettySize=auto;html=1;exitX=0;exitY=1;exitDx=0;exitDy=0;fontFamily=Architects Daughter;fontSource=https%3A%2F%2Ffonts.googleapis.com%2Fcss%3Ffamily%3DArchitects%2BDaughter;anchorPointDirection=1;startFill=1;bendable=1;simplification=0;arcSize=20;fillOpacity=100;strokeOpacity=100;perimeterSpacing=0;orthogonal=0;jumpStyle=none;fillColor=#d5e8d4;gradientColor=#97d077;strokeColor=#FF00FF;" parent="1" source="gGJAbAsKnIqdadsWA6wg-8" target="gGJAbAsKnIqdadsWA6wg-10" edge="1">
          <mxGeometry relative="1" as="geometry" />
        </mxCell>
        <mxCell id="UjzeRyzxe-JirhQYJkpm-3" value="Player is in sight?" style="edgeLabel;html=1;align=center;verticalAlign=middle;resizable=0;points=[];sketch=1;hachureGap=4;jiggle=2;curveFitting=1;fontFamily=Architects Daughter;fontSource=https%3A%2F%2Ffonts.googleapis.com%2Fcss%3Ffamily%3DArchitects%2BDaughter;" parent="gGJAbAsKnIqdadsWA6wg-14" vertex="1" connectable="0">
          <mxGeometry x="0.0307" y="-3" relative="1" as="geometry">
            <mxPoint as="offset" />
          </mxGeometry>
        </mxCell>
        <mxCell id="DmyO-TmC5lkpLwxQltIJ-4" style="rounded=0;sketch=1;hachureGap=4;jiggle=2;curveFitting=1;orthogonalLoop=1;jettySize=auto;html=1;exitX=1;exitY=1;exitDx=0;exitDy=0;entryX=0.5;entryY=0;entryDx=0;entryDy=0;fontFamily=Architects Daughter;fontSource=https%3A%2F%2Ffonts.googleapis.com%2Fcss%3Ffamily%3DArchitects%2BDaughter;fillColor=#008a00;strokeColor=#005700;" parent="1" source="gGJAbAsKnIqdadsWA6wg-8" target="DmyO-TmC5lkpLwxQltIJ-3" edge="1">
          <mxGeometry relative="1" as="geometry" />
        </mxCell>
        <mxCell id="UjzeRyzxe-JirhQYJkpm-7" value="No Clue" style="edgeLabel;html=1;align=center;verticalAlign=middle;resizable=0;points=[];sketch=1;hachureGap=4;jiggle=2;curveFitting=1;fontFamily=Architects Daughter;fontSource=https%3A%2F%2Ffonts.googleapis.com%2Fcss%3Ffamily%3DArchitects%2BDaughter;" parent="DmyO-TmC5lkpLwxQltIJ-4" vertex="1" connectable="0">
          <mxGeometry x="0.1012" y="3" relative="1" as="geometry">
            <mxPoint as="offset" />
          </mxGeometry>
        </mxCell>
        <mxCell id="DmyO-TmC5lkpLwxQltIJ-6" style="rounded=0;sketch=1;hachureGap=4;jiggle=2;curveFitting=1;orthogonalLoop=1;jettySize=auto;html=1;exitX=0;exitY=1;exitDx=0;exitDy=0;entryX=0.5;entryY=0;entryDx=0;entryDy=0;fontFamily=Architects Daughter;fontSource=https%3A%2F%2Ffonts.googleapis.com%2Fcss%3Ffamily%3DArchitects%2BDaughter;fillColor=#d5e8d4;gradientColor=#97d077;strokeColor=#FF00FF;" parent="1" source="gGJAbAsKnIqdadsWA6wg-8" target="DmyO-TmC5lkpLwxQltIJ-1" edge="1">
          <mxGeometry relative="1" as="geometry" />
        </mxCell>
        <mxCell id="UjzeRyzxe-JirhQYJkpm-4" value="Heard Shouting?" style="edgeLabel;html=1;align=center;verticalAlign=middle;resizable=0;points=[];sketch=1;hachureGap=4;jiggle=2;curveFitting=1;fontFamily=Architects Daughter;fontSource=https%3A%2F%2Ffonts.googleapis.com%2Fcss%3Ffamily%3DArchitects%2BDaughter;" parent="DmyO-TmC5lkpLwxQltIJ-6" vertex="1" connectable="0">
          <mxGeometry x="-0.0561" y="2" relative="1" as="geometry">
            <mxPoint x="-11" y="26" as="offset" />
          </mxGeometry>
        </mxCell>
        <mxCell id="DmyO-TmC5lkpLwxQltIJ-9" style="rounded=0;sketch=1;hachureGap=4;jiggle=2;curveFitting=1;orthogonalLoop=1;jettySize=auto;html=1;entryX=0.5;entryY=0;entryDx=0;entryDy=0;fontFamily=Architects Daughter;fontSource=https%3A%2F%2Ffonts.googleapis.com%2Fcss%3Ffamily%3DArchitects%2BDaughter;fillColor=#d5e8d4;gradientColor=#97d077;strokeColor=#FF00FF;exitX=1;exitY=1;exitDx=0;exitDy=0;" parent="1" source="gGJAbAsKnIqdadsWA6wg-8" target="DmyO-TmC5lkpLwxQltIJ-8" edge="1">
          <mxGeometry relative="1" as="geometry">
            <mxPoint x="820" y="260" as="sourcePoint" />
          </mxGeometry>
        </mxCell>
        <mxCell id="UjzeRyzxe-JirhQYJkpm-6" value="Knew Prev Player&lt;br&gt;Location?" style="edgeLabel;html=1;align=center;verticalAlign=middle;resizable=0;points=[];sketch=1;hachureGap=4;jiggle=2;curveFitting=1;fontFamily=Architects Daughter;fontSource=https%3A%2F%2Ffonts.googleapis.com%2Fcss%3Ffamily%3DArchitects%2BDaughter;" parent="DmyO-TmC5lkpLwxQltIJ-9" vertex="1" connectable="0">
          <mxGeometry x="0.0625" y="1" relative="1" as="geometry">
            <mxPoint x="50" y="43" as="offset" />
          </mxGeometry>
        </mxCell>
        <mxCell id="gGJAbAsKnIqdadsWA6wg-8" value="Detect" style="rhombus;whiteSpace=wrap;html=1;sketch=1;hachureGap=4;jiggle=2;curveFitting=1;fontFamily=Architects Daughter;fontSource=https%3A%2F%2Ffonts.googleapis.com%2Fcss%3Ffamily%3DArchitects%2BDaughter;fillColor=#f8cecc;gradientColor=#ea6b66;strokeColor=#b85450;" parent="1" vertex="1">
          <mxGeometry x="560" y="200" width="190" height="80" as="geometry" />
        </mxCell>
        <mxCell id="DmyO-TmC5lkpLwxQltIJ-13" style="rounded=0;sketch=1;hachureGap=4;jiggle=2;curveFitting=1;orthogonalLoop=1;jettySize=auto;html=1;exitX=0;exitY=1;exitDx=0;exitDy=0;entryX=0.5;entryY=0;entryDx=0;entryDy=0;fontFamily=Architects Daughter;fontSource=https%3A%2F%2Ffonts.googleapis.com%2Fcss%3Ffamily%3DArchitects%2BDaughter;fillColor=#d5e8d4;gradientColor=#97d077;strokeColor=#FF00FF;" parent="1" source="gGJAbAsKnIqdadsWA6wg-10" target="DmyO-TmC5lkpLwxQltIJ-11" edge="1">
          <mxGeometry relative="1" as="geometry" />
        </mxCell>
        <mxCell id="UjzeRyzxe-JirhQYJkpm-8" value="Player is in attack range?" style="edgeLabel;html=1;align=center;verticalAlign=middle;resizable=0;points=[];sketch=1;hachureGap=4;jiggle=2;curveFitting=1;fontFamily=Architects Daughter;fontSource=https%3A%2F%2Ffonts.googleapis.com%2Fcss%3Ffamily%3DArchitects%2BDaughter;" parent="DmyO-TmC5lkpLwxQltIJ-13" vertex="1" connectable="0">
          <mxGeometry x="-0.0751" relative="1" as="geometry">
            <mxPoint as="offset" />
          </mxGeometry>
        </mxCell>
        <mxCell id="DmyO-TmC5lkpLwxQltIJ-14" style="rounded=0;sketch=1;hachureGap=4;jiggle=2;curveFitting=1;orthogonalLoop=1;jettySize=auto;html=1;fontFamily=Architects Daughter;fontSource=https%3A%2F%2Ffonts.googleapis.com%2Fcss%3Ffamily%3DArchitects%2BDaughter;fillColor=#008a00;gradientColor=#97d077;strokeColor=#005700;align=center;verticalAlign=middle;fontSize=11;fontColor=default;labelBackgroundColor=default;endArrow=classic;exitX=0.5;exitY=1;exitDx=0;exitDy=0;" parent="1" source="gGJAbAsKnIqdadsWA6wg-10" target="DmyO-TmC5lkpLwxQltIJ-12" edge="1">
          <mxGeometry relative="1" as="geometry">
            <mxPoint x="320" y="290" as="sourcePoint" />
          </mxGeometry>
        </mxCell>
        <mxCell id="UjzeRyzxe-JirhQYJkpm-9" value="Player is far away" style="edgeLabel;html=1;align=center;verticalAlign=middle;resizable=0;points=[];sketch=1;hachureGap=4;jiggle=2;curveFitting=1;fontFamily=Architects Daughter;fontSource=https%3A%2F%2Ffonts.googleapis.com%2Fcss%3Ffamily%3DArchitects%2BDaughter;rounded=0;strokeColor=#005700;fontSize=11;fontColor=default;labelBackgroundColor=default;fillColor=#008a00;" parent="DmyO-TmC5lkpLwxQltIJ-14" vertex="1" connectable="0">
          <mxGeometry x="0.0313" relative="1" as="geometry">
            <mxPoint x="12" y="-14" as="offset" />
          </mxGeometry>
        </mxCell>
        <mxCell id="gGJAbAsKnIqdadsWA6wg-11" value="Selector" style="rhombus;whiteSpace=wrap;html=1;sketch=1;hachureGap=4;jiggle=2;curveFitting=1;fontFamily=Architects Daughter;fontSource=https%3A%2F%2Ffonts.googleapis.com%2Fcss%3Ffamily%3DArchitects%2BDaughter;fillColor=#f8cecc;gradientColor=#ea6b66;strokeColor=#b85450;" parent="1" vertex="1">
          <mxGeometry x="127.5" y="30" width="100" height="80" as="geometry" />
        </mxCell>
        <mxCell id="gGJAbAsKnIqdadsWA6wg-12" value="&lt;div&gt;Task&lt;/div&gt;" style="whiteSpace=wrap;html=1;rounded=1;shadow=1;labelBackgroundColor=none;strokeWidth=1;fontFamily=Architects Daughter;fontSize=12;align=center;sketch=1;curveFitting=1;jiggle=2;fontSource=https%3A%2F%2Ffonts.googleapis.com%2Fcss%3Ffamily%3DArchitects%2BDaughter;fillColor=#fff2cc;gradientColor=#ffd966;strokeColor=#d6b656;" parent="1" vertex="1">
          <mxGeometry x="17.5" y="40" width="90" height="60" as="geometry" />
        </mxCell>
        <mxCell id="gGJAbAsKnIqdadsWA6wg-13" value="Sequence" style="shape=parallelogram;perimeter=parallelogramPerimeter;whiteSpace=wrap;html=1;fixedSize=1;sketch=1;hachureGap=4;jiggle=2;curveFitting=1;fontFamily=Architects Daughter;fontSource=https%3A%2F%2Ffonts.googleapis.com%2Fcss%3Ffamily%3DArchitects%2BDaughter;fillColor=#dae8fc;gradientColor=#7ea6e0;strokeColor=#6c8ebf;" parent="1" vertex="1">
          <mxGeometry x="247.5" y="40" width="100" height="60" as="geometry" />
        </mxCell>
        <mxCell id="DmyO-TmC5lkpLwxQltIJ-25" style="rounded=0;sketch=1;hachureGap=4;jiggle=2;curveFitting=1;orthogonalLoop=1;jettySize=auto;html=1;entryX=0.5;entryY=0;entryDx=0;entryDy=0;fontFamily=Architects Daughter;fontSource=https%3A%2F%2Ffonts.googleapis.com%2Fcss%3Ffamily%3DArchitects%2BDaughter;strokeColor=#808080;" parent="1" source="DmyO-TmC5lkpLwxQltIJ-1" target="DmyO-TmC5lkpLwxQltIJ-20" edge="1">
          <mxGeometry relative="1" as="geometry" />
        </mxCell>
        <mxCell id="DmyO-TmC5lkpLwxQltIJ-1" value="Shouting" style="shape=parallelogram;perimeter=parallelogramPerimeter;whiteSpace=wrap;html=1;fixedSize=1;sketch=1;hachureGap=4;jiggle=2;curveFitting=1;fontFamily=Architects Daughter;fontSource=https%3A%2F%2Ffonts.googleapis.com%2Fcss%3Ffamily%3DArchitects%2BDaughter;fillColor=#dae8fc;gradientColor=#7ea6e0;strokeColor=#6c8ebf;" parent="1" vertex="1">
          <mxGeometry x="410" y="520" width="150" height="70" as="geometry" />
        </mxCell>
        <mxCell id="DmyO-TmC5lkpLwxQltIJ-2" value="FootSound" style="shape=parallelogram;perimeter=parallelogramPerimeter;whiteSpace=wrap;html=1;fixedSize=1;sketch=1;hachureGap=4;jiggle=2;curveFitting=1;fontFamily=Architects Daughter;fontSource=https%3A%2F%2Ffonts.googleapis.com%2Fcss%3Ffamily%3DArchitects%2BDaughter;fillColor=#dae8fc;gradientColor=#7ea6e0;strokeColor=#6c8ebf;" parent="1" vertex="1">
          <mxGeometry x="594.5" y="520" width="150" height="70" as="geometry" />
        </mxCell>
        <mxCell id="DmyO-TmC5lkpLwxQltIJ-28" style="rounded=0;sketch=1;hachureGap=4;jiggle=2;curveFitting=1;orthogonalLoop=1;jettySize=auto;html=1;exitX=0.25;exitY=1;exitDx=0;exitDy=0;entryX=0.5;entryY=0;entryDx=0;entryDy=0;fontFamily=Architects Daughter;fontSource=https%3A%2F%2Ffonts.googleapis.com%2Fcss%3Ffamily%3DArchitects%2BDaughter;strokeColor=#005700;fillColor=#008a00;" parent="1" source="DmyO-TmC5lkpLwxQltIJ-3" target="DmyO-TmC5lkpLwxQltIJ-24" edge="1">
          <mxGeometry relative="1" as="geometry" />
        </mxCell>
        <mxCell id="DmyO-TmC5lkpLwxQltIJ-3" value="&lt;span style=&quot;font-size: 11px; text-wrap-mode: nowrap;&quot;&gt;Patrol&lt;/span&gt;" style="shape=parallelogram;perimeter=parallelogramPerimeter;whiteSpace=wrap;html=1;fixedSize=1;sketch=1;hachureGap=4;jiggle=2;curveFitting=1;fontFamily=Architects Daughter;fontSource=https%3A%2F%2Ffonts.googleapis.com%2Fcss%3Ffamily%3DArchitects%2BDaughter;fillColor=#dae8fc;gradientColor=#7ea6e0;strokeColor=#6c8ebf;align=center;verticalAlign=middle;fontSize=12;fontColor=default;" parent="1" vertex="1">
          <mxGeometry x="1110" y="495" width="150" height="70" as="geometry" />
        </mxCell>
        <mxCell id="DmyO-TmC5lkpLwxQltIJ-27" style="rounded=0;sketch=1;hachureGap=4;jiggle=2;curveFitting=1;orthogonalLoop=1;jettySize=auto;html=1;exitX=0.5;exitY=1;exitDx=0;exitDy=0;entryX=0.5;entryY=0;entryDx=0;entryDy=0;fontFamily=Architects Daughter;fontSource=https%3A%2F%2Ffonts.googleapis.com%2Fcss%3Ffamily%3DArchitects%2BDaughter;strokeColor=#808080;" parent="1" source="DmyO-TmC5lkpLwxQltIJ-8" target="DmyO-TmC5lkpLwxQltIJ-23" edge="1">
          <mxGeometry relative="1" as="geometry" />
        </mxCell>
        <mxCell id="DmyO-TmC5lkpLwxQltIJ-8" value="Investigaed" style="shape=parallelogram;perimeter=parallelogramPerimeter;whiteSpace=wrap;html=1;fixedSize=1;sketch=1;hachureGap=4;jiggle=2;curveFitting=1;fontFamily=Architects Daughter;fontSource=https%3A%2F%2Ffonts.googleapis.com%2Fcss%3Ffamily%3DArchitects%2BDaughter;fillColor=#dae8fc;gradientColor=#7ea6e0;strokeColor=#6c8ebf;" parent="1" vertex="1">
          <mxGeometry x="936" y="520" width="150" height="70" as="geometry" />
        </mxCell>
        <mxCell id="DmyO-TmC5lkpLwxQltIJ-17" style="rounded=0;sketch=1;hachureGap=4;jiggle=2;curveFitting=1;orthogonalLoop=1;jettySize=auto;html=1;fontFamily=Architects Daughter;fontSource=https%3A%2F%2Ffonts.googleapis.com%2Fcss%3Ffamily%3DArchitects%2BDaughter;fillColor=#f5f5f5;strokeColor=#808080;gradientColor=#b3b3b3;" parent="1" source="DmyO-TmC5lkpLwxQltIJ-11" target="DmyO-TmC5lkpLwxQltIJ-15" edge="1">
          <mxGeometry relative="1" as="geometry" />
        </mxCell>
        <mxCell id="DmyO-TmC5lkpLwxQltIJ-11" value="CanAttack" style="shape=parallelogram;perimeter=parallelogramPerimeter;whiteSpace=wrap;html=1;fixedSize=1;sketch=1;hachureGap=4;jiggle=2;curveFitting=1;fontFamily=Architects Daughter;fontSource=https%3A%2F%2Ffonts.googleapis.com%2Fcss%3Ffamily%3DArchitects%2BDaughter;fillColor=#dae8fc;gradientColor=#7ea6e0;strokeColor=#6c8ebf;" parent="1" vertex="1">
          <mxGeometry x="114.5" y="515" width="140" height="77.5" as="geometry" />
        </mxCell>
        <mxCell id="DmyO-TmC5lkpLwxQltIJ-18" style="rounded=0;sketch=1;hachureGap=4;jiggle=2;curveFitting=1;orthogonalLoop=1;jettySize=auto;html=1;exitX=0.5;exitY=1;exitDx=0;exitDy=0;entryX=0.5;entryY=0;entryDx=0;entryDy=0;fontFamily=Architects Daughter;fontSource=https%3A%2F%2Ffonts.googleapis.com%2Fcss%3Ffamily%3DArchitects%2BDaughter;strokeColor=#808080;" parent="1" source="DmyO-TmC5lkpLwxQltIJ-12" target="DmyO-TmC5lkpLwxQltIJ-16" edge="1">
          <mxGeometry relative="1" as="geometry" />
        </mxCell>
        <mxCell id="DmyO-TmC5lkpLwxQltIJ-12" value="CanNotAttack" style="shape=parallelogram;perimeter=parallelogramPerimeter;whiteSpace=wrap;html=1;fixedSize=1;sketch=1;hachureGap=4;jiggle=2;curveFitting=1;fontFamily=Architects Daughter;fontSource=https%3A%2F%2Ffonts.googleapis.com%2Fcss%3Ffamily%3DArchitects%2BDaughter;fillColor=#dae8fc;gradientColor=#7ea6e0;strokeColor=#6c8ebf;align=center;verticalAlign=middle;fontSize=12;fontColor=default;" parent="1" vertex="1">
          <mxGeometry x="260" y="515" width="142.5" height="75" as="geometry" />
        </mxCell>
        <mxCell id="DmyO-TmC5lkpLwxQltIJ-15" value="&lt;div&gt;Attack&lt;/div&gt;" style="whiteSpace=wrap;html=1;rounded=1;shadow=1;labelBackgroundColor=none;strokeWidth=1;fontFamily=Architects Daughter;fontSize=12;align=center;sketch=1;curveFitting=1;jiggle=2;fontSource=https%3A%2F%2Ffonts.googleapis.com%2Fcss%3Ffamily%3DArchitects%2BDaughter;fillColor=#fff2cc;gradientColor=#ffd966;strokeColor=#d6b656;" parent="1" vertex="1">
          <mxGeometry x="134.5" y="645" width="90" height="60" as="geometry" />
        </mxCell>
        <mxCell id="DmyO-TmC5lkpLwxQltIJ-16" value="&lt;div&gt;Chase&lt;br&gt;Player&lt;/div&gt;" style="whiteSpace=wrap;html=1;rounded=1;shadow=1;labelBackgroundColor=none;strokeWidth=1;fontFamily=Architects Daughter;fontSize=12;align=center;sketch=1;curveFitting=1;jiggle=2;fontSource=https%3A%2F%2Ffonts.googleapis.com%2Fcss%3Ffamily%3DArchitects%2BDaughter;fillColor=#fff2cc;gradientColor=#ffd966;strokeColor=#d6b656;fillStyle=hachure;verticalAlign=middle;fontColor=default;" parent="1" vertex="1">
          <mxGeometry x="286.25" y="645" width="90" height="60" as="geometry" />
        </mxCell>
        <mxCell id="DmyO-TmC5lkpLwxQltIJ-20" value="&lt;div&gt;Search&lt;br&gt;Shouting&lt;/div&gt;" style="whiteSpace=wrap;html=1;rounded=1;shadow=1;labelBackgroundColor=none;strokeWidth=1;fontFamily=Architects Daughter;fontSize=12;align=center;sketch=1;curveFitting=1;jiggle=2;fontSource=https%3A%2F%2Ffonts.googleapis.com%2Fcss%3Ffamily%3DArchitects%2BDaughter;fillColor=#fff2cc;gradientColor=#ffd966;strokeColor=#d6b656;fillStyle=hachure;verticalAlign=middle;fontColor=default;" parent="1" vertex="1">
          <mxGeometry x="440" y="645" width="90" height="60" as="geometry" />
        </mxCell>
        <mxCell id="DmyO-TmC5lkpLwxQltIJ-22" value="Search&lt;br&gt;Sound" style="whiteSpace=wrap;html=1;rounded=1;shadow=1;labelBackgroundColor=none;strokeWidth=1;fontFamily=Architects Daughter;fontSize=12;align=center;sketch=1;curveFitting=1;jiggle=2;fontSource=https%3A%2F%2Ffonts.googleapis.com%2Fcss%3Ffamily%3DArchitects%2BDaughter;fillColor=#fff2cc;gradientColor=#ffd966;strokeColor=#d6b656;fillStyle=hachure;verticalAlign=middle;fontColor=default;" parent="1" vertex="1">
          <mxGeometry x="680" y="645" width="90" height="60" as="geometry" />
        </mxCell>
        <mxCell id="DmyO-TmC5lkpLwxQltIJ-23" value="Search&lt;br&gt;Location" style="whiteSpace=wrap;html=1;rounded=1;shadow=1;labelBackgroundColor=none;strokeWidth=1;fontFamily=Architects Daughter;fontSize=12;align=center;sketch=1;curveFitting=1;jiggle=2;fontSource=https%3A%2F%2Ffonts.googleapis.com%2Fcss%3Ffamily%3DArchitects%2BDaughter;fillColor=#fff2cc;gradientColor=#ffd966;strokeColor=#d6b656;fillStyle=hachure;verticalAlign=middle;fontColor=default;" parent="1" vertex="1">
          <mxGeometry x="966" y="645" width="90" height="60" as="geometry" />
        </mxCell>
        <mxCell id="DmyO-TmC5lkpLwxQltIJ-24" value="&lt;div&gt;Patrol&lt;/div&gt;" style="whiteSpace=wrap;html=1;rounded=1;shadow=1;labelBackgroundColor=none;strokeWidth=1;fontFamily=Architects Daughter;fontSize=12;align=center;sketch=1;curveFitting=1;jiggle=2;fontSource=https%3A%2F%2Ffonts.googleapis.com%2Fcss%3Ffamily%3DArchitects%2BDaughter;fillColor=#fff2cc;gradientColor=#ffd966;strokeColor=#d6b656;fillStyle=hachure;verticalAlign=middle;fontColor=default;" parent="1" vertex="1">
          <mxGeometry x="1100" y="625" width="90" height="60" as="geometry" />
        </mxCell>
        <mxCell id="UjzeRyzxe-JirhQYJkpm-1" style="rounded=0;sketch=1;hachureGap=4;jiggle=2;curveFitting=1;orthogonalLoop=1;jettySize=auto;html=1;fontFamily=Architects Daughter;fontSource=https%3A%2F%2Ffonts.googleapis.com%2Fcss%3Ffamily%3DArchitects%2BDaughter;anchorPointDirection=1;startFill=1;bendable=1;simplification=0;arcSize=20;fillOpacity=100;strokeOpacity=100;perimeterSpacing=0;orthogonal=0;jumpStyle=none;strokeColor=#FF00FF;fillColor=#e3c800;" parent="1" edge="1">
          <mxGeometry relative="1" as="geometry">
            <mxPoint x="527.5" y="50" as="sourcePoint" />
            <mxPoint x="357.5" y="50" as="targetPoint" />
          </mxGeometry>
        </mxCell>
        <mxCell id="UjzeRyzxe-JirhQYJkpm-2" value="Blackboard-Based&amp;nbsp;&lt;div&gt;Condition&lt;/div&gt;" style="edgeLabel;html=1;align=center;verticalAlign=middle;resizable=0;points=[];sketch=1;hachureGap=4;jiggle=2;curveFitting=1;fontFamily=Architects Daughter;fontSource=https%3A%2F%2Ffonts.googleapis.com%2Fcss%3Ffamily%3DArchitects%2BDaughter;" parent="UjzeRyzxe-JirhQYJkpm-1" vertex="1" connectable="0">
          <mxGeometry x="0.0489" y="2" relative="1" as="geometry">
            <mxPoint as="offset" />
          </mxGeometry>
        </mxCell>
        <mxCell id="UjzeRyzxe-JirhQYJkpm-10" value="Rest" style="whiteSpace=wrap;html=1;rounded=1;shadow=1;labelBackgroundColor=none;strokeWidth=1;fontFamily=Architects Daughter;fontSize=12;align=center;sketch=1;curveFitting=1;jiggle=2;fontSource=https%3A%2F%2Ffonts.googleapis.com%2Fcss%3Ffamily%3DArchitects%2BDaughter;fillColor=#fff2cc;gradientColor=#ffd966;strokeColor=#d6b656;" parent="1" vertex="1">
          <mxGeometry x="1230" y="625" width="90" height="60" as="geometry" />
        </mxCell>
        <mxCell id="UjzeRyzxe-JirhQYJkpm-11" style="rounded=0;sketch=1;hachureGap=4;jiggle=2;curveFitting=1;orthogonalLoop=1;jettySize=auto;html=1;entryX=0.5;entryY=0;entryDx=0;entryDy=0;fontFamily=Architects Daughter;fontSource=https%3A%2F%2Ffonts.googleapis.com%2Fcss%3Ffamily%3DArchitects%2BDaughter;fillColor=#d5e8d4;gradientColor=#97d077;strokeColor=#00FFFF;exitX=0.75;exitY=1;exitDx=0;exitDy=0;" parent="1" source="DmyO-TmC5lkpLwxQltIJ-3" target="UjzeRyzxe-JirhQYJkpm-10" edge="1">
          <mxGeometry relative="1" as="geometry">
            <mxPoint x="1240" y="575" as="sourcePoint" />
            <mxPoint x="1365" y="735" as="targetPoint" />
          </mxGeometry>
        </mxCell>
        <mxCell id="UjzeRyzxe-JirhQYJkpm-13" value="Random Chance" style="edgeLabel;html=1;align=center;verticalAlign=middle;resizable=0;points=[];sketch=1;hachureGap=4;jiggle=2;curveFitting=1;fontFamily=Architects Daughter;fontSource=https%3A%2F%2Ffonts.googleapis.com%2Fcss%3Ffamily%3DArchitects%2BDaughter;" parent="UjzeRyzxe-JirhQYJkpm-11" vertex="1" connectable="0">
          <mxGeometry x="0.1375" y="3" relative="1" as="geometry">
            <mxPoint as="offset" />
          </mxGeometry>
        </mxCell>
        <mxCell id="UjzeRyzxe-JirhQYJkpm-15" value="Decorator" style="edgeLabel;html=1;align=center;verticalAlign=middle;resizable=0;points=[];sketch=1;hachureGap=4;jiggle=2;curveFitting=1;fontFamily=Architects Daughter;fontSource=https%3A%2F%2Ffonts.googleapis.com%2Fcss%3Ffamily%3DArchitects%2BDaughter;" parent="1" vertex="1" connectable="0">
          <mxGeometry x="429.49888316703056" y="19.996096040898358" as="geometry" />
        </mxCell>
        <mxCell id="UjzeRyzxe-JirhQYJkpm-16" style="rounded=0;sketch=1;hachureGap=4;jiggle=2;curveFitting=1;orthogonalLoop=1;jettySize=auto;html=1;fontFamily=Architects Daughter;fontSource=https%3A%2F%2Ffonts.googleapis.com%2Fcss%3Ffamily%3DArchitects%2BDaughter;anchorPointDirection=1;startFill=1;bendable=1;simplification=0;arcSize=20;fillOpacity=100;strokeOpacity=100;perimeterSpacing=0;orthogonal=0;jumpStyle=none;fillColor=#b0e3e6;strokeColor=#00FFFF;" parent="1" edge="1">
          <mxGeometry relative="1" as="geometry">
            <mxPoint x="530" y="80" as="sourcePoint" />
            <mxPoint x="360" y="80" as="targetPoint" />
          </mxGeometry>
        </mxCell>
        <mxCell id="UjzeRyzxe-JirhQYJkpm-17" value="Random Chance" style="edgeLabel;html=1;align=center;verticalAlign=middle;resizable=0;points=[];sketch=1;hachureGap=4;jiggle=2;curveFitting=1;fontFamily=Architects Daughter;fontSource=https%3A%2F%2Ffonts.googleapis.com%2Fcss%3Ffamily%3DArchitects%2BDaughter;" parent="UjzeRyzxe-JirhQYJkpm-16" vertex="1" connectable="0">
          <mxGeometry x="0.0489" y="2" relative="1" as="geometry">
            <mxPoint as="offset" />
          </mxGeometry>
        </mxCell>
        <mxCell id="UjzeRyzxe-JirhQYJkpm-19" style="rounded=0;sketch=1;hachureGap=4;jiggle=2;curveFitting=1;orthogonalLoop=1;jettySize=auto;html=1;exitX=0.528;exitY=1.045;exitDx=0;exitDy=0;fontFamily=Architects Daughter;fontSource=https%3A%2F%2Ffonts.googleapis.com%2Fcss%3Ffamily%3DArchitects%2BDaughter;anchorPointDirection=1;startFill=1;bendable=1;simplification=0;arcSize=20;fillOpacity=100;strokeOpacity=100;perimeterSpacing=0;orthogonal=0;jumpStyle=none;fillColor=#d5e8d4;gradientColor=#97d077;strokeColor=#FF00FF;exitPerimeter=0;entryX=0.5;entryY=0;entryDx=0;entryDy=0;" parent="1" source="gGJAbAsKnIqdadsWA6wg-2" target="UjzeRyzxe-JirhQYJkpm-21" edge="1">
          <mxGeometry relative="1" as="geometry">
            <mxPoint x="770" y="130" as="sourcePoint" />
            <mxPoint x="857" y="220" as="targetPoint" />
          </mxGeometry>
        </mxCell>
        <mxCell id="UjzeRyzxe-JirhQYJkpm-20" value="&lt;span style=&quot;font-size: 12px; text-wrap-mode: wrap; background-color: rgb(251, 251, 251);&quot;&gt;During&amp;nbsp;&lt;/span&gt;&lt;span style=&quot;background-color: light-dark(rgb(251, 251, 251), rgb(21, 21, 21)); font-size: 12px; text-wrap-mode: wrap; color: light-dark(rgb(0, 0, 0), rgb(255, 255, 255));&quot;&gt;Animation&lt;/span&gt;" style="edgeLabel;html=1;align=center;verticalAlign=middle;resizable=0;points=[];sketch=1;hachureGap=4;jiggle=2;curveFitting=1;fontFamily=Architects Daughter;fontSource=https%3A%2F%2Ffonts.googleapis.com%2Fcss%3Ffamily%3DArchitects%2BDaughter;" parent="UjzeRyzxe-JirhQYJkpm-19" vertex="1" connectable="0">
          <mxGeometry x="0.0307" y="-3" relative="1" as="geometry">
            <mxPoint as="offset" />
          </mxGeometry>
        </mxCell>
        <mxCell id="UjzeRyzxe-JirhQYJkpm-21" value="Wait" style="whiteSpace=wrap;html=1;rounded=1;shadow=1;labelBackgroundColor=none;strokeWidth=1;fontFamily=Architects Daughter;fontSize=12;align=center;sketch=1;curveFitting=1;jiggle=2;fontSource=https%3A%2F%2Ffonts.googleapis.com%2Fcss%3Ffamily%3DArchitects%2BDaughter;fillColor=#fff2cc;gradientColor=#ffd966;strokeColor=#d6b656;" parent="1" vertex="1">
          <mxGeometry x="900" y="170" width="100" height="70" as="geometry" />
        </mxCell>
        <mxCell id="UjzeRyzxe-JirhQYJkpm-24" value="&lt;div&gt;Runaway&lt;/div&gt;" style="whiteSpace=wrap;html=1;rounded=1;shadow=1;labelBackgroundColor=none;strokeWidth=1;fontFamily=Architects Daughter;fontSize=12;align=center;sketch=1;curveFitting=1;jiggle=2;fontSource=https%3A%2F%2Ffonts.googleapis.com%2Fcss%3Ffamily%3DArchitects%2BDaughter;fillColor=#fff2cc;gradientColor=#ffd966;strokeColor=#d6b656;fillStyle=hachure;verticalAlign=middle;fontColor=default;" parent="1" vertex="1">
          <mxGeometry y="395" width="90" height="60" as="geometry" />
        </mxCell>
        <mxCell id="UjzeRyzxe-JirhQYJkpm-25" value="&lt;div&gt;Health Regenerate&lt;/div&gt;" style="whiteSpace=wrap;html=1;rounded=1;shadow=1;labelBackgroundColor=none;strokeWidth=1;fontFamily=Architects Daughter;fontSize=12;align=center;sketch=1;curveFitting=1;jiggle=2;fontSource=https%3A%2F%2Ffonts.googleapis.com%2Fcss%3Ffamily%3DArchitects%2BDaughter;fillColor=#fff2cc;gradientColor=#ffd966;strokeColor=#d6b656;" parent="1" vertex="1">
          <mxGeometry x="120" y="395" width="90" height="60" as="geometry" />
        </mxCell>
        <mxCell id="UjzeRyzxe-JirhQYJkpm-27" style="rounded=0;sketch=1;hachureGap=4;jiggle=2;curveFitting=1;orthogonalLoop=1;jettySize=auto;html=1;exitX=0.5;exitY=1;exitDx=0;exitDy=0;fontFamily=Architects Daughter;fontSource=https%3A%2F%2Ffonts.googleapis.com%2Fcss%3Ffamily%3DArchitects%2BDaughter;anchorPointDirection=1;startFill=1;bendable=1;simplification=0;arcSize=20;fillOpacity=100;strokeOpacity=100;perimeterSpacing=0;orthogonal=0;jumpStyle=none;fillColor=#d5e8d4;gradientColor=#97d077;strokeColor=#FF00FF;entryX=0.422;entryY=-0.036;entryDx=0;entryDy=0;entryPerimeter=0;" parent="1" source="gGJAbAsKnIqdadsWA6wg-2" target="UjzeRyzxe-JirhQYJkpm-29" edge="1">
          <mxGeometry relative="1" as="geometry">
            <mxPoint x="495" y="180" as="sourcePoint" />
            <mxPoint x="276.5" y="260" as="targetPoint" />
          </mxGeometry>
        </mxCell>
        <mxCell id="UjzeRyzxe-JirhQYJkpm-28" value="&lt;font style=&quot;font-size: 12px;&quot;&gt;Health is low?&lt;/font&gt;" style="edgeLabel;html=1;align=center;verticalAlign=middle;resizable=0;points=[];sketch=1;hachureGap=4;jiggle=2;curveFitting=1;fontFamily=Architects Daughter;fontSource=https%3A%2F%2Ffonts.googleapis.com%2Fcss%3Ffamily%3DArchitects%2BDaughter;" parent="UjzeRyzxe-JirhQYJkpm-27" vertex="1" connectable="0">
          <mxGeometry x="0.0307" y="-3" relative="1" as="geometry">
            <mxPoint x="21" y="-9" as="offset" />
          </mxGeometry>
        </mxCell>
        <mxCell id="UjzeRyzxe-JirhQYJkpm-29" value="Flee" style="shape=parallelogram;perimeter=parallelogramPerimeter;whiteSpace=wrap;html=1;fixedSize=1;sketch=1;hachureGap=4;jiggle=2;curveFitting=1;fontFamily=Architects Daughter;fontSource=https%3A%2F%2Ffonts.googleapis.com%2Fcss%3Ffamily%3DArchitects%2BDaughter;fillColor=#dae8fc;gradientColor=#7ea6e0;strokeColor=#6c8ebf;" parent="1" vertex="1">
          <mxGeometry x="154" y="240" width="140" height="77.5" as="geometry" />
        </mxCell>
        <mxCell id="UjzeRyzxe-JirhQYJkpm-31" style="rounded=0;sketch=1;hachureGap=4;jiggle=2;curveFitting=1;orthogonalLoop=1;jettySize=auto;html=1;fontFamily=Architects Daughter;fontSource=https%3A%2F%2Ffonts.googleapis.com%2Fcss%3Ffamily%3DArchitects%2BDaughter;fillColor=#f5f5f5;strokeColor=#808080;gradientColor=#b3b3b3;entryX=0.607;entryY=-0.027;entryDx=0;entryDy=0;entryPerimeter=0;exitX=0.5;exitY=1;exitDx=0;exitDy=0;" parent="1" source="UjzeRyzxe-JirhQYJkpm-29" target="UjzeRyzxe-JirhQYJkpm-24" edge="1">
          <mxGeometry relative="1" as="geometry">
            <mxPoint x="210" y="317.5" as="sourcePoint" />
            <mxPoint x="208" y="369.5" as="targetPoint" />
          </mxGeometry>
        </mxCell>
        <mxCell id="UjzeRyzxe-JirhQYJkpm-32" style="rounded=0;sketch=1;hachureGap=4;jiggle=2;curveFitting=1;orthogonalLoop=1;jettySize=auto;html=1;fontFamily=Architects Daughter;fontSource=https%3A%2F%2Ffonts.googleapis.com%2Fcss%3Ffamily%3DArchitects%2BDaughter;fillColor=#f5f5f5;strokeColor=#808080;gradientColor=#b3b3b3;entryX=0.5;entryY=0;entryDx=0;entryDy=0;exitX=0.5;exitY=1;exitDx=0;exitDy=0;" parent="1" source="UjzeRyzxe-JirhQYJkpm-29" target="UjzeRyzxe-JirhQYJkpm-25" edge="1">
          <mxGeometry relative="1" as="geometry">
            <mxPoint x="220" y="327.5" as="sourcePoint" />
            <mxPoint x="65" y="403" as="targetPoint" />
          </mxGeometry>
        </mxCell>
        <mxCell id="UjzeRyzxe-JirhQYJkpm-38" value="HordeAction" style="shape=parallelogram;perimeter=parallelogramPerimeter;whiteSpace=wrap;html=1;fixedSize=1;sketch=1;hachureGap=4;jiggle=2;curveFitting=1;fontFamily=Architects Daughter;fontSource=https%3A%2F%2Ffonts.googleapis.com%2Fcss%3Ffamily%3DArchitects%2BDaughter;fillColor=#dae8fc;gradientColor=#7ea6e0;strokeColor=#6c8ebf;" parent="1" vertex="1">
          <mxGeometry x="770" y="520" width="150" height="70" as="geometry" />
        </mxCell>
        <mxCell id="UjzeRyzxe-JirhQYJkpm-39" value="Follow&lt;br&gt;Zombie" style="whiteSpace=wrap;html=1;rounded=1;shadow=1;labelBackgroundColor=none;strokeWidth=1;fontFamily=Architects Daughter;fontSize=12;align=center;sketch=1;curveFitting=1;jiggle=2;fontSource=https%3A%2F%2Ffonts.googleapis.com%2Fcss%3Ffamily%3DArchitects%2BDaughter;fillColor=#fff2cc;gradientColor=#ffd966;strokeColor=#d6b656;fillStyle=hachure;verticalAlign=middle;fontColor=default;" parent="1" vertex="1">
          <mxGeometry x="800" y="645" width="90" height="60" as="geometry" />
        </mxCell>
        <mxCell id="UjzeRyzxe-JirhQYJkpm-40" style="rounded=0;sketch=1;hachureGap=4;jiggle=2;curveFitting=1;orthogonalLoop=1;jettySize=auto;html=1;entryX=0.446;entryY=0.048;entryDx=0;entryDy=0;fontFamily=Architects Daughter;fontSource=https%3A%2F%2Ffonts.googleapis.com%2Fcss%3Ffamily%3DArchitects%2BDaughter;strokeColor=#808080;entryPerimeter=0;" parent="1" target="UjzeRyzxe-JirhQYJkpm-39" edge="1">
          <mxGeometry relative="1" as="geometry">
            <mxPoint x="840" y="590" as="sourcePoint" />
            <mxPoint x="838.71" y="645" as="targetPoint" />
          </mxGeometry>
        </mxCell>
        <mxCell id="UjzeRyzxe-JirhQYJkpm-41" style="rounded=0;sketch=1;hachureGap=4;jiggle=2;curveFitting=1;orthogonalLoop=1;jettySize=auto;html=1;entryX=0.5;entryY=0;entryDx=0;entryDy=0;fontFamily=Architects Daughter;fontSource=https%3A%2F%2Ffonts.googleapis.com%2Fcss%3Ffamily%3DArchitects%2BDaughter;fillColor=#d5e8d4;gradientColor=#97d077;strokeColor=#FF00FF;exitX=1;exitY=1;exitDx=0;exitDy=0;" parent="1" source="gGJAbAsKnIqdadsWA6wg-8" target="UjzeRyzxe-JirhQYJkpm-38" edge="1">
          <mxGeometry relative="1" as="geometry">
            <mxPoint x="700" y="270" as="sourcePoint" />
            <mxPoint x="750" y="645" as="targetPoint" />
          </mxGeometry>
        </mxCell>
        <mxCell id="UjzeRyzxe-JirhQYJkpm-42" value="Heard Another&amp;nbsp;&lt;div&gt;&lt;span style=&quot;background-color: light-dark(#ffffff, var(--ge-dark-color, #121212)); color: light-dark(rgb(0, 0, 0), rgb(255, 255, 255));&quot;&gt;Zombie&#39;s Reaction?&lt;/span&gt;&lt;/div&gt;" style="edgeLabel;html=1;align=center;verticalAlign=middle;resizable=0;points=[];sketch=1;hachureGap=4;jiggle=2;curveFitting=1;fontFamily=Architects Daughter;fontSource=https%3A%2F%2Ffonts.googleapis.com%2Fcss%3Ffamily%3DArchitects%2BDaughter;" parent="UjzeRyzxe-JirhQYJkpm-41" vertex="1" connectable="0">
          <mxGeometry x="0.0176" y="1" relative="1" as="geometry">
            <mxPoint x="7" y="9" as="offset" />
          </mxGeometry>
        </mxCell>
        <mxCell id="UjzeRyzxe-JirhQYJkpm-44" style="rounded=0;sketch=1;hachureGap=4;jiggle=2;curveFitting=1;orthogonalLoop=1;jettySize=auto;html=1;fontFamily=Architects Daughter;fontSource=https%3A%2F%2Ffonts.googleapis.com%2Fcss%3Ffamily%3DArchitects%2BDaughter;anchorPointDirection=1;startFill=1;bendable=1;simplification=0;arcSize=20;fillOpacity=100;strokeOpacity=100;perimeterSpacing=0;orthogonal=0;jumpStyle=none;fillColor=#b0e3e6;strokeColor=#00FFFF;exitX=0.5;exitY=1;exitDx=0;exitDy=0;entryX=0.646;entryY=0.014;entryDx=0;entryDy=0;entryPerimeter=0;" parent="1" source="gGJAbAsKnIqdadsWA6wg-2" target="UjzeRyzxe-JirhQYJkpm-29" edge="1">
          <mxGeometry relative="1" as="geometry">
            <mxPoint x="520" y="250" as="sourcePoint" />
            <mxPoint x="250" y="238" as="targetPoint" />
          </mxGeometry>
        </mxCell>
        <mxCell id="UjzeRyzxe-JirhQYJkpm-45" value="Random Chance" style="edgeLabel;html=1;align=center;verticalAlign=middle;resizable=0;points=[];sketch=1;hachureGap=4;jiggle=2;curveFitting=1;fontFamily=Architects Daughter;fontSource=https%3A%2F%2Ffonts.googleapis.com%2Fcss%3Ffamily%3DArchitects%2BDaughter;" parent="UjzeRyzxe-JirhQYJkpm-44" vertex="1" connectable="0">
          <mxGeometry x="0.0489" y="2" relative="1" as="geometry">
            <mxPoint x="-68" y="25" as="offset" />
          </mxGeometry>
        </mxCell>
        <mxCell id="UjzeRyzxe-JirhQYJkpm-46" value="&lt;div&gt;Select&lt;br&gt;Random&lt;br&gt;Location&lt;/div&gt;" style="whiteSpace=wrap;html=1;rounded=1;shadow=1;labelBackgroundColor=none;strokeWidth=1;fontFamily=Architects Daughter;fontSize=12;align=center;sketch=1;curveFitting=1;jiggle=2;fontSource=https%3A%2F%2Ffonts.googleapis.com%2Fcss%3Ffamily%3DArchitects%2BDaughter;fillColor=#dae8fc;strokeColor=#6c8ebf;" parent="1" vertex="1">
          <mxGeometry x="570" y="645" width="90" height="60" as="geometry" />
        </mxCell>
        <mxCell id="UjzeRyzxe-JirhQYJkpm-47" style="rounded=0;sketch=1;hachureGap=4;jiggle=2;curveFitting=1;orthogonalLoop=1;jettySize=auto;html=1;exitX=0.25;exitY=1;exitDx=0;exitDy=0;fontFamily=Architects Daughter;fontSource=https%3A%2F%2Ffonts.googleapis.com%2Fcss%3Ffamily%3DArchitects%2BDaughter;anchorPointDirection=1;startFill=1;bendable=1;simplification=0;arcSize=20;fillOpacity=100;strokeOpacity=100;perimeterSpacing=0;orthogonal=0;jumpStyle=none;fillColor=#d5e8d4;gradientColor=#97d077;strokeColor=#FF00FF;entryX=0.5;entryY=0;entryDx=0;entryDy=0;" parent="1" source="DmyO-TmC5lkpLwxQltIJ-2" target="UjzeRyzxe-JirhQYJkpm-46" edge="1">
          <mxGeometry relative="1" as="geometry">
            <mxPoint x="680" y="592.5" as="sourcePoint" />
            <mxPoint x="545" y="678.5" as="targetPoint" />
          </mxGeometry>
        </mxCell>
        <mxCell id="UjzeRyzxe-JirhQYJkpm-48" value="Range" style="edgeLabel;html=1;align=center;verticalAlign=middle;resizable=0;points=[];sketch=1;hachureGap=4;jiggle=2;curveFitting=1;fontFamily=Architects Daughter;fontSource=https%3A%2F%2Ffonts.googleapis.com%2Fcss%3Ffamily%3DArchitects%2BDaughter;" parent="UjzeRyzxe-JirhQYJkpm-47" vertex="1" connectable="0">
          <mxGeometry x="0.0307" y="-3" relative="1" as="geometry">
            <mxPoint x="10" y="-8" as="offset" />
          </mxGeometry>
        </mxCell>
        <mxCell id="UjzeRyzxe-JirhQYJkpm-49" style="rounded=0;sketch=1;hachureGap=4;jiggle=2;curveFitting=1;orthogonalLoop=1;jettySize=auto;html=1;entryX=0.5;entryY=0;entryDx=0;entryDy=0;fontFamily=Architects Daughter;fontSource=https%3A%2F%2Ffonts.googleapis.com%2Fcss%3Ffamily%3DArchitects%2BDaughter;strokeColor=#808080;exitX=0.63;exitY=1.024;exitDx=0;exitDy=0;exitPerimeter=0;" parent="1" source="DmyO-TmC5lkpLwxQltIJ-2" target="DmyO-TmC5lkpLwxQltIJ-22" edge="1">
          <mxGeometry relative="1" as="geometry">
            <mxPoint x="690" y="590" as="sourcePoint" />
            <mxPoint x="690" y="645" as="targetPoint" />
          </mxGeometry>
        </mxCell>
        <mxCell id="nWUuhw5oMv9QGmwgLQnS-3" value="&lt;div&gt;[Task]&lt;br&gt;Move&lt;/div&gt;" style="whiteSpace=wrap;html=1;rounded=1;shadow=1;labelBackgroundColor=none;strokeWidth=1;fontFamily=Architects Daughter;fontSize=12;align=center;sketch=1;curveFitting=1;jiggle=2;fontSource=https%3A%2F%2Ffonts.googleapis.com%2Fcss%3Ffamily%3DArchitects%2BDaughter;fillColor=#fff2cc;gradientColor=#ffd966;strokeColor=#d6b656;fillStyle=hachure;" parent="1" vertex="1">
          <mxGeometry x="31.25" y="120" width="62.5" height="40" as="geometry" />
        </mxCell>
        <mxCell id="09XxZc1g37a5Un7T-y1D-11" style="rounded=0;sketch=1;hachureGap=4;jiggle=2;curveFitting=1;orthogonalLoop=1;jettySize=auto;html=1;fontFamily=Architects Daughter;fontSource=https%3A%2F%2Ffonts.googleapis.com%2Fcss%3Ffamily%3DArchitects%2BDaughter;anchorPointDirection=1;startFill=1;bendable=1;simplification=0;arcSize=20;fillOpacity=100;strokeOpacity=100;perimeterSpacing=0;orthogonal=0;jumpStyle=none;fillColor=#008a00;strokeColor=#005700;" parent="1" edge="1">
          <mxGeometry relative="1" as="geometry">
            <mxPoint x="530" y="100" as="sourcePoint" />
            <mxPoint x="360" y="100" as="targetPoint" />
          </mxGeometry>
        </mxCell>
        <mxCell id="09XxZc1g37a5Un7T-y1D-12" value="Inverse Condition" style="edgeLabel;html=1;align=center;verticalAlign=middle;resizable=0;points=[];sketch=1;hachureGap=4;jiggle=2;curveFitting=1;fontFamily=Architects Daughter;fontSource=https%3A%2F%2Ffonts.googleapis.com%2Fcss%3Ffamily%3DArchitects%2BDaughter;" parent="09XxZc1g37a5Un7T-y1D-11" vertex="1" connectable="0">
          <mxGeometry x="0.0489" y="2" relative="1" as="geometry">
            <mxPoint as="offset" />
          </mxGeometry>
        </mxCell>
      </root>
    </mxGraphModel>
  </diagram>
</mxfile>
